<?xml version="1.0" standalone="no"?><!DOCTYPE svg PUBLIC "-//W3C//DTD SVG 1.1//EN" "http://www.w3.org/Graphics/SVG/1.1/DTD/svg11.dtd"><svg t="1694503132254" class="icon" viewBox="0 0 1024 1024" version="1.1" xmlns="http://www.w3.org/2000/svg" p-id="3224" xmlns:xlink="http://www.w3.org/1999/xlink" width="200" height="200"><path d="M597.664 618.728l-49.98 78.532c-29.392 46.18-87.272 65.228-138.348 45.528l-83.328-32.14a258 258 0 0 1-151.516-157.944l-73.72-217.636 450.76-152.688 72.84 215.04a258.008 258.008 0 0 1-26.708 221.308z" fill="#EB6B69" p-id="3225"></path><path d="M447.1 742.788l-83.328-32.14a258 258 0 0 1-151.516-157.944l-73.72-217.636 416.884-141.212-3.888-11.476-450.76 152.688 73.72 217.636a258 258 0 0 0 151.516 157.944l83.328 32.14a114.532 114.532 0 0 0 60.32 6.068 114.54 114.54 0 0 1-22.556-6.068z" fill="#E8E6F4" p-id="3226"></path><path d="M450.432 762.44a126.08 126.08 0 0 1-45.416-8.456l-83.328-32.14c-74.984-28.924-132.78-89.172-158.568-165.288L89.4 338.92a12.012 12.012 0 0 1 7.516-15.22L547.68 171.012a12.012 12.012 0 0 1 15.22 7.516l72.844 215.044c26.368 77.848 16.176 162.264-27.952 231.6l-49.98 78.528c-23.812 37.408-64.92 58.74-107.38 58.74zM115.988 342.584l69.872 206.268c23.492 69.356 76.148 124.248 144.472 150.6l83.324 32.14c45.572 17.584 97.684 0.42 123.904-40.776l49.98-78.528 10.124 6.44-10.124-6.44c40.212-63.176 49.492-140.088 25.468-211.016l-68.992-203.68L115.988 342.584z" fill="#44294F" p-id="3227"></path><path d="M470.512 423.156a90.184 90.184 0 0 1-59.436-22.328l15.836-18.04c17.64 15.488 42.4 20.44 64.596 12.916a66.068 66.068 0 0 0 43.456-49.508l23.532 4.704c-6.272 31.4-28.992 57.276-59.284 67.54a89.648 89.648 0 0 1-28.7 4.716zM249.12 498.144a90.18 90.18 0 0 1-59.436-22.324l15.828-18.04a66.092 66.092 0 0 0 64.6 12.916 66.068 66.068 0 0 0 43.456-49.504l23.532 4.704c-6.272 31.396-28.992 57.272-59.284 67.536a89.62 89.62 0 0 1-28.696 4.712zM334.544 673.488l-23.532-4.72c11.448-57.052 52.756-104.076 107.808-122.728 55.072-18.648 116.444-6.412 160.208 31.952l-15.82 18.048c-37.34-32.732-89.716-43.18-136.684-27.264-46.968 15.912-82.212 56.032-91.98 104.712zM146.32 348.112l258.28-87.512 7.704 22.732-258.28 87.512zM441.508 248.116l73.792-25.004 7.704 22.736-73.796 25z" fill="#44294F" p-id="3228"></path><path d="M826.928 757.896l-72.532 58.344c-42.656 34.312-103.588 33.78-145.64-1.264l-68.612-57.176a258.008 258.008 0 0 1-92.836-198.208V329.812h475.916v227.04a257.992 257.992 0 0 1-96.296 201.044z" fill="#FCC800" p-id="3229"></path><path d="M646.516 814.976l-68.612-57.176a258.008 258.008 0 0 1-92.836-198.208V329.812h-37.764v229.78a258.008 258.008 0 0 0 92.836 198.208l68.612 57.176c26.464 22.052 60.4 30.412 92.556 25.048a114.58 114.58 0 0 1-54.792-25.048z" fill="#E8E6F4" p-id="3230"></path><path d="M682.36 853.512c-28.936 0-57.852-9.784-81.288-29.316l-68.608-57.176c-61.744-51.452-97.152-127.056-97.152-207.424V329.812a12 12 0 0 1 12-12h475.916a12 12 0 0 1 12 12v227.044c0 82.192-36.732 158.88-100.776 210.392l-72.536 58.344c-23.16 18.624-51.368 27.92-79.556 27.92zM459.308 341.812v217.78c0 73.228 32.26 142.108 88.52 188.988l68.608 57.176c37.524 31.272 92.376 31.748 130.436 1.128l72.536-58.344c58.352-46.932 91.816-116.8 91.816-191.688v-215.04H459.308z" fill="#44294F" p-id="3231"></path><path d="M621.228 530.6c-11.744-20.328-33.6-32.956-57.044-32.956s-45.296 12.624-57.04 32.948l-20.78-12.008c16.016-27.72 45.836-44.94 77.82-44.94 31.988 0 61.808 17.228 77.824 44.956l-20.78 12zM854.976 530.6c-11.744-20.328-33.6-32.956-57.044-32.956s-45.296 12.624-57.04 32.948l-20.78-12.008c16.016-27.72 45.836-44.94 77.82-44.94 31.988 0 61.808 17.228 77.824 44.956l-20.78 12zM680.864 731.344c-58.128 0-112.348-31.288-141.488-81.66l20.772-12.016c24.868 42.976 71.12 69.676 120.716 69.676 49.588 0 95.844-26.696 120.708-69.668l20.772 12.024c-29.14 50.36-83.352 81.644-141.48 81.644zM486.268 356.768h272.708v24h-272.708zM797.932 356.768h77.916v24h-77.916z" fill="#44294F" p-id="3232"></path></svg>